<?xml version="1.0" encoding="UTF-8"?>
<svg width="453px" height="434px" viewBox="0 0 453 434" version="1.1" xmlns="http://www.w3.org/2000/svg" xmlns:xlink="http://www.w3.org/1999/xlink">
    <title>like (4)</title>
    <g id="Page-1" stroke="none" stroke-width="1" fill="none" fill-rule="evenodd">
        <g id="like-(4)" fill="#FFFFFF" fill-rule="nonzero">
            <path d="M47.1426677,189 C21.1577615,189 0,210.14541 0,236.115147 L0,386.884853 C0,412.85459 21.1577615,434 47.1426677,434 L103.714223,434 C114.331112,434 124.098545,430.419521 132,424.46354 L132,189 L47.1426677,189 Z" id="Path"></path>
            <path d="M453,259.374889 C453,248.038131 448.508041,237.474192 440.712363,229.68321 C449.527292,220.04418 454.019251,207.12199 452.79208,193.672797 C450.583703,169.696804 428.971512,150.908609 403.566327,150.908609 L286.975338,150.908609 C292.751094,133.383983 301.999558,101.259777 301.999558,75.4543043 C301.999558,34.539048 267.213194,0 245.374502,0 C225.763653,0 211.7578,11.0352351 211.154389,11.4879627 C208.927432,13.2803042 207.625055,15.9966697 207.625055,18.863355 L207.625055,82.8296966 L153.265002,200.520302 L151,201.67069 L151,403.851583 C166.36397,411.095224 185.804944,415 198.187251,415 L371.44134,415 C391.996235,415 409.984423,401.153786 414.211837,382.045499 C416.382169,372.217242 415.117838,362.313826 410.795754,353.712002 C424.744097,346.694724 434.125276,332.339192 434.125276,315.965839 C434.125276,309.288107 432.5964,302.893329 429.689942,297.102484 C443.638286,290.085206 453,275.729674 453,259.374889 Z" id="Path"></path>
        </g>
    </g>
</svg>