<?xml version="1.0" encoding="UTF-8"?>
<svg width="17px" height="22px" viewBox="0 0 17 22" version="1.1" xmlns="http://www.w3.org/2000/svg" xmlns:xlink="http://www.w3.org/1999/xlink">
    <title>EF169C3D-90C3-4AA6-B41F-96D098125CDA</title>
    <g id="Page-1" stroke="none" stroke-width="1" fill="none" fill-rule="evenodd">
        <g id="Read-Review" transform="translate(-492.000000, -255.000000)" fill-rule="nonzero">
            <g id="Group-14" transform="translate(195.000000, 253.000000)">
                <g id="5f830838ce5648edb64ccd67d3b8a57b" transform="translate(297.000000, 2.000000)">
                    <g id="Group" transform="translate(8.500000, 11.000000) scale(-1, 1) rotate(-180.000000) translate(-8.500000, -11.000000) ">
                        <path d="M8.36992802,21.9775533 C8.33525726,21.9647587 8.17051453,21.8228956 8.00146628,21.6639731 C7.06059717,20.7705948 5.66017062,20.0190797 4.14258864,19.5851852 C3.09770728,19.2888889 2.15683818,19.1470258 0.951292989,19.0956229 C0.209837377,19.0612795 0.209837377,19.0612795 0.105825113,18.9452301 L0.00181284991,18.8249158 L0.00181284991,14.9939394 C0.00181284991,12.7863075 0.0192615303,10.9609428 0.0450946414,10.6904602 C0.318155159,7.73131313 1.49764063,5.08125701 3.4401093,3.08395062 C4.06010397,2.43973064 4.63681685,1.96296296 5.40002666,1.45611672 C6.31483604,0.84624018 7.24278859,0.395286195 8.18796321,0.098989899 L8.50022661,0.000224466891 L8.81679552,0.098989899 C10.3429885,0.580022447 11.9387497,1.52906846 13.1658224,2.69315376 C15.3337643,4.7375982 16.6909091,7.5979798 16.9553586,10.6904602 C16.9814183,10.9867565 16.9986404,12.8078563 16.9986404,15.0154882 L16.9986404,18.8251403 L16.8946281,18.9454545 C16.7906158,19.0615039 16.7906158,19.0615039 16.0620768,19.0915825 C13.1742069,19.2076319 10.5856838,20.152413 8.99445481,21.6729517 C8.69941349,21.9560045 8.52605972,22.0419753 8.36992802,21.9775533 Z M8.6126233,21.0154882 C8.65590509,20.9638608 8.85101306,20.8006734 9.04181552,20.6547699 C10.7762597,19.3147026 13.126393,18.51156 15.714916,18.3741863 L16.2655692,18.3441077 L16.2481205,14.4742985 C16.2352039,10.7205387 16.2306718,10.5874299 16.1354972,10.0031425 C15.7668089,7.68372615 14.856305,5.67811448 13.4341242,4.03299663 C12.211357,2.61997755 10.5204212,1.46015713 8.85985071,0.889113356 L8.5,0.768799102 L8.14445481,0.889113356 C6.06330312,1.6020202 4.05126633,3.16969697 2.75915756,5.08529742 C1.64062917,6.74747475 0.968515063,8.65005612 0.782018128,10.7117845 C0.755958411,11.0038159 0.738736337,12.674523 0.738736337,14.7833895 L0.738736337,18.3569024 L0.990269262,18.3569024 C1.34150893,18.3569024 2.42536657,18.4686869 2.90667822,18.5501684 C4.48068515,18.820651 5.92892562,19.3447811 7.1559984,20.1005612 C7.55482538,20.3454545 8.24438816,20.8565657 8.3873767,21.0154882 C8.49138896,21.1270483 8.50861104,21.1270483 8.6126233,21.0154882 Z" id="Shape" fill="#FFFFFF"></path>
                        <path d="M8.04474807,18.9108866 C6.61395628,18.0132435 4.9402426,17.3991021 3.08003199,17.0940516 C2.48179152,16.9952862 2.39930685,16.9694725 2.30821114,16.8707071 L2.2085044,16.7546577 L2.22595308,13.7223345 C2.24340176,10.5398429 2.24770728,10.4754209 2.4557318,9.50886644 C3.014996,6.90617284 4.50651826,4.68552189 6.63117835,3.27676768 C7.17752599,2.91604938 8.33095175,2.3362514 8.50861104,2.3362514 C8.66904825,2.3362514 8.83379099,2.49517396 8.86846174,2.68417508 C8.8813783,2.76588103 8.88591042,6.45095398 8.8813783,10.8747475 L8.86846174,18.9236813 L8.7470008,19.0267116 C8.56934151,19.1771044 8.43065849,19.15578 8.04474807,18.9108866 Z" id="Shape" fill="#79CD56"></path>
                    </g>
                </g>
            </g>
        </g>
    </g>
</svg>