<?xml version="1.0" encoding="UTF-8"?>
<svg width="25px" height="26px" viewBox="0 0 25 26" version="1.1" xmlns="http://www.w3.org/2000/svg" xmlns:xlink="http://www.w3.org/1999/xlink">
    <title>DAA764D1-5E06-429D-9E28-D6338983FC83</title>
    <g id="Page-1" stroke="none" stroke-width="1" fill="none" fill-rule="evenodd">
        <g id="Read-Review" transform="translate(-639.000000, -253.000000)" fill-rule="nonzero">
            <g id="Group-14" transform="translate(195.000000, 253.000000)">
                <g id="credit-card" transform="translate(444.000000, 0.000000)">
                    <path d="M19.6579573,6.82779364 C20.027942,6.82779364 20.132163,6.30731593 19.7986557,6.15008829 L6.77623718,0.142908065 C5.9841573,-0.225763646 5.05137902,0.142908065 4.69702749,0.972419414 L0.137357137,11.6096826 C-0.216994388,12.4337723 0.137357137,13.4042464 0.934648068,13.7729181 L3.56101819,14.9548362 C3.88931446,15.1066422 4.26451019,14.8572466 4.26451019,14.4831533 L4.26451019,9.96692483 C4.26451019,8.23742077 5.61417262,6.83321529 7.27649815,6.83321529 L19.6579573,6.83321529 L19.6579573,6.82779364 L19.6579573,6.82779364 Z" id="Shape" fill="#FFFFFF"></path>
                    <path d="M23.4040626,7 L7.59593741,7 C6.714521,7 6,7.74645841 6,8.66727207 L6,20.3327279 C6,21.2535416 6.714521,22 7.59593741,22 L9.71863848,22 C9.66648367,21.6730839 9.64040626,21.3407192 9.64040626,21.0029059 C9.64040626,20.6215038 9.67691463,20.2509989 9.73950041,19.8859426 L8.0288224,19.8859426 L8.0288224,14.301126 L22.9763931,14.301126 L22.9763931,19.880494 L21.2604996,19.880494 C21.3230854,20.2455503 21.3595937,20.6160552 21.3595937,20.9974573 C21.3595937,21.3352706 21.3335163,21.6676353 21.2813615,21.9945514 L23.4040626,21.9945514 C24.285479,21.9945514 25,21.248093 25,20.3272793 L25,8.66727207 C25,7.74645841 24.285479,7 23.4040626,7 Z M22.9763931,10.8630585 L8.0288224,10.8630585 L8.0288224,9.11405739 L22.9763931,9.11405739 L22.9763931,10.8630585 Z" id="Shape" fill="#FFFFFF"></path>
                    <path d="M15,18 C12.7913486,18 11,19.7913486 11,22 C11,24.2086514 12.7913486,26 15,26 C17.2086514,26 19,24.2086514 19,22 C19,19.7913486 17.2086514,18 15,18 Z M16.1501272,23.5776081 C15.9770992,23.7913486 15.7480916,23.9338422 15.4834606,24.0050891 C15.3664122,24.0356234 15.3155216,24.0966921 15.3206107,24.2188295 C15.3256997,24.3358779 15.3206107,24.4529262 15.3206107,24.5750636 C15.3206107,24.6819338 15.264631,24.7379135 15.1628499,24.7379135 C15.0356234,24.7430025 14.9083969,24.7430025 14.7811705,24.7379135 C14.6692112,24.7379135 14.6183206,24.6717557 14.6183206,24.5648855 C14.6183206,24.4783715 14.6183206,24.3918575 14.6183206,24.3053435 C14.6183206,24.1170483 14.6081425,24.1068702 14.4249364,24.0763359 C14.1908397,24.0407125 13.9618321,23.9847328 13.7480916,23.8829517 C13.5801527,23.8015267 13.5597964,23.7608142 13.610687,23.5826972 C13.6463104,23.4503817 13.6819338,23.3180662 13.7226463,23.1908397 C13.7684478,23.0381679 13.8091603,23.0229008 13.9516539,23.0941476 C14.1908397,23.216285 14.4402036,23.2875318 14.7048346,23.3180662 C14.8727735,23.3384224 15.0407125,23.3231552 15.1984733,23.2519084 C15.4936387,23.1246819 15.5394402,22.783715 15.2900763,22.5801527 C15.2035623,22.5089059 15.1119593,22.4580153 15.0101781,22.4173028 C14.7506361,22.3053435 14.480916,22.2188295 14.2417303,22.0712468 C13.8447837,21.8371501 13.5954198,21.5114504 13.6259542,21.0279898 C13.6564885,20.4834606 13.9669211,20.1475827 14.4656489,19.9643766 C14.6692112,19.8880407 14.6743003,19.8931298 14.6743003,19.6793893 C14.6743003,19.6081425 14.6743003,19.5318066 14.6743003,19.4605598 C14.6793893,19.2977099 14.7048346,19.2722646 14.8676845,19.2671756 C14.9185751,19.2671756 14.9694656,19.2671756 15.0152672,19.2671756 C15.3613232,19.2671756 15.3613232,19.2671756 15.3613232,19.6132316 C15.3613232,19.8575064 15.3613232,19.8575064 15.605598,19.8931298 C15.7888041,19.9236641 15.9669211,19.9745547 16.1399491,20.0508906 C16.2366412,20.0916031 16.2722646,20.1577608 16.2417303,20.259542 C16.2010178,20.4071247 16.1603053,20.5597964 16.1094148,20.7022901 C16.0636132,20.8396947 16.0178117,20.8600509 15.8854962,20.7989822 C15.6157761,20.6666667 15.3358779,20.6157761 15.0407125,20.6310433 C14.9643766,20.6361323 14.8880407,20.6463104 14.8167939,20.6768448 C14.562341,20.7888041 14.5165394,21.0737913 14.735369,21.2468193 C14.8473282,21.3333333 14.9694656,21.3994911 15.1017812,21.4554707 C15.3307888,21.5470738 15.5547074,21.6386768 15.7735369,21.7608142 C16.4452926,22.1323155 16.6335878,22.9923664 16.1501272,23.5776081 Z" id="Shape" fill="#79CD56"></path>
                </g>
            </g>
        </g>
    </g>
</svg>